<svg xmlns="http://www.w3.org/2000/svg" version="1.1" xmlns:xlink="http://www.w3.org/1999/xlink" xmlns:svgjs="http://svgjs.dev/svgjs" width="1000" height="1000" viewBox="0 0 1000 1000"><rect width="1000" height="1000" fill="none"></rect><g transform="matrix(0.7,0,0,0.7,149.57575757575756,282.1265587044535)"><svg viewBox="0 0 396 247" data-background-color="#ffffff" preserveAspectRatio="xMidYMid meet" height="623" width="1000" xmlns="http://www.w3.org/2000/svg" xmlns:xlink="http://www.w3.org/1999/xlink"><g id="tight-bounds" transform="matrix(1,0,0,1,0.2400000000000091,-0.09999999999999432)"><svg viewBox="0 0 395.52 247.2" height="247.2" width="395.52"><g><svg></svg></g><g><svg viewBox="0 0 395.52 247.2" height="247.2" width="395.52"><g transform="matrix(1,0,0,1,75.54432,57.460825868263456)"><svg viewBox="0 0 244.43135999999998 132.27834826347308" height="132.27834826347308" width="244.43135999999998"><g><svg viewBox="0 0 244.43135999999998 132.27834826347308" height="132.27834826347308" width="244.43135999999998"><g><svg viewBox="0 0 244.43135999999998 132.27834826347308" height="132.27834826347308" width="244.43135999999998"><g><svg viewBox="0 0 244.43135999999998 132.27834826347308" height="132.27834826347308" width="244.43135999999998"><g id="textblocktransform"><svg viewBox="0 0 244.43135999999998 132.27834826347308" height="132.27834826347308" width="244.43135999999998" id="textblock"><g><svg viewBox="0 0 244.43135999999998 132.27834826347308" height="132.27834826347308" width="244.43135999999998"><g transform="matrix(1,0,0,1,0,0)"><svg width="244.43135999999998" viewBox="3.200000047683716 -35.70000076293945 66.80000305175781 36.150001525878906" height="132.27834826347308" data-palette-color="#001f3f"><path d="M26.6-21.55L26.6-35.25 35.6-35.25 35.6 0 26.6 0 26.6-14.25 12.2-14.25 12.2 0 3.2 0 3.2-35.25 12.2-35.25 12.2-21.55 26.6-21.55ZM54.75 0.45Q50.8 0.45 46.95-0.6 43.1-1.65 40.7-3.4L40.7-3.4 43.55-9.9Q46.1-8.3 49-7.45 51.9-6.6 54.85-6.6L54.85-6.6Q57.85-6.6 59.42-7.43 61-8.25 61-9.75L61-9.75Q61-11.1 59.57-11.95 58.15-12.8 54.15-13.65L54.15-13.65Q49.2-14.7 46.4-16.15 43.6-17.6 42.47-19.55 41.35-21.5 41.35-24.35L41.35-24.35Q41.35-27.6 43.17-30.18 45-32.75 48.32-34.23 51.65-35.7 55.95-35.7L55.95-35.7Q59.75-35.7 63.32-34.63 66.9-33.55 68.9-31.85L68.9-31.85 66.1-25.35Q61.3-28.65 56-28.65L56-28.65Q53.45-28.65 51.9-27.68 50.35-26.7 50.35-25.1L50.35-25.1Q50.35-24.15 50.9-23.55 51.45-22.95 52.95-22.38 54.45-21.8 57.4-21.2L57.4-21.2Q62.2-20.15 64.95-18.68 67.7-17.2 68.85-15.25 70-13.3 70-10.6L70-10.6Q70-5.4 66-2.48 62 0.45 54.75 0.45L54.75 0.45Z" opacity="1" transform="matrix(1,0,0,1,0,0)" fill="#ffffff" class="undefined-text-0" data-fill-palette-color="primary" id="text-0"></path></svg></g></svg></g></svg></g></svg></g></svg></g></svg></g></svg></g><path d="M148.747 51.461L148.747 5.775 384.398 5.775 384.398 241.425 148.747 241.425 148.747 195.739 160.676 195.739 160.676 229.497 372.469 229.497 372.469 17.703 160.676 17.703 160.676 51.461Z" fill="#ffffff" stroke="transparent" data-fill-palette-color="primary"></path></svg></g><defs></defs></svg><rect width="395.52" height="247.2" fill="none" stroke="transparent" visibility="hidden"></rect></g></svg></g></svg>